Coordinates
version=1
nRows=9
nColumns=63
inDegrees=yes

Units are S.I. units (second, meters, Newtons, ...)
If the header above contains a line with 'inDegrees', this indicates whether rotational values are in degrees (yes) or radians (no).

endheader
time	pelvis_tilt	pelvis_list	pelvis_rotation	pelvis_tx	pelvis_ty	pelvis_tz	hip_flexion_r	hip_adduction_r	hip_rotation_r	knee_angle_r	knee_angle_r_beta	ankle_angle_r	subtalar_angle_r	mtp_angle_r	hip_flexion_l	hip_adduction_l	hip_rotation_l	knee_angle_l	knee_angle_l_beta	ankle_angle_l	subtalar_angle_l	mtp_angle_l	L5_S1_Flex_Ext	L5_S1_Lat_Bending	L5_S1_axial_rotation	L4_L5_Flex_Ext	L4_L5_Lat_Bending	L4_L5_axial_rotation	L3_L4_Flex_Ext	L3_L4_Lat_Bending	L3_L4_axial_rotation	L2_L3_Flex_Ext	L2_L3_Lat_Bending	L2_L3_axial_rotation	L1_L2_Flex_Ext	L1_L2_Lat_Bending	L1_L2_axial_rotation	L1_T12_Flex_Ext	L1_T12_Lat_Bending	L1_T12_axial_rotation	Abs_r3	Abs_r2	Abs_r1	Abs_t1	Abs_t2	neck_flexion	neck_bending	neck_rotation	arm_flex_r	arm_add_r	arm_rot_r	elbow_flex_r	pro_sup_r	wrist_flex_r	wrist_dev_r	arm_flex_l	arm_add_l	arm_rot_l	elbow_flex_l	pro_sup_l	wrist_flex_l	wrist_dev_l
3.203390	1.399748	-3.732998	87.168706	0.207537	0.703224	0.867167	20.826021	1.581621	9.307811	17.407476	0.303818	30.536433	-5.547781	0.000000	16.120082	-1.870005	-16.303887	14.271555	0.249086	36.127278	11.779753	0.000000	-0.071850	-0.484578	-0.655180	-0.133432	-0.644489	-0.696129	-0.118042	-1.178203	-0.696129	-0.082117	-1.178203	-0.573283	-0.066720	-0.988151	-0.532334	-0.041055	-0.750611	-0.491385	-0.513215	-5.481643	-3.643915	0.000000	0.000000	20.860977	-1.773065	-16.111256	37.300673	-34.482186	-42.934211	147.905875	88.628381	-29.225181	-15.922397	20.466576	-2.522590	172.548542	0.470452	22.143464	-10.701858	-7.185012
3.220339	1.589104	-3.156087	87.593458	0.206975	0.703648	0.865656	20.501092	1.623022	8.600708	18.225754	0.318099	31.386553	-5.253594	0.000000	15.538371	-1.963469	-16.218280	14.452804	0.252249	36.564235	11.983175	0.000000	-0.059959	-0.485120	-0.689393	-0.111350	-0.645210	-0.732480	-0.098507	-1.179521	-0.732480	-0.068527	-1.179521	-0.603219	-0.055678	-0.989257	-0.560132	-0.034261	-0.751451	-0.517045	-0.428281	-5.487778	-3.834199	0.000000	0.000000	19.646840	-1.896974	-17.026975	39.634686	-36.085886	-43.969150	148.996707	86.589131	-25.356836	-16.673605	20.341318	-2.491679	173.337059	0.489967	23.903347	-10.506453	-6.136665
3.237288	1.763815	-2.567417	87.922129	0.206495	0.703867	0.864409	20.243097	1.682463	7.905382	19.156818	0.334350	32.323254	-4.775466	0.000000	14.996777	-2.093095	-16.275074	14.737840	0.257224	37.058117	12.200279	0.000000	-0.051504	-0.481983	-0.733006	-0.095648	-0.641037	-0.778819	-0.084615	-1.171893	-0.778819	-0.058864	-1.171893	-0.641380	-0.047826	-0.982859	-0.595567	-0.029429	-0.746591	-0.549754	-0.367886	-5.452286	-4.076758	0.000000	0.000000	18.323278	-2.081088	-17.698999	42.002077	-37.440725	-44.624693	149.726643	83.936410	-19.947464	-16.771397	20.138981	-2.517647	174.220538	0.488896	26.017644	-11.024521	-4.763572
3.254237	1.912436	-1.980911	88.141162	0.206147	0.703876	0.863422	20.063806	1.756221	7.268169	20.191850	0.352414	33.326099	-4.141365	0.000000	14.510639	-2.247794	-16.452659	15.126441	0.264006	37.596386	12.391577	0.000000	-0.043849	-0.477051	-0.784795	-0.081432	-0.634478	-0.833845	-0.072039	-1.159902	-0.833845	-0.050115	-1.159902	-0.686696	-0.040718	-0.972802	-0.637646	-0.025055	-0.738952	-0.588597	-0.313208	-5.396497	-4.364797	0.000000	0.000000	16.940330	-2.345854	-18.203373	44.319053	-38.508848	-44.920808	150.157421	80.986252	-13.385420	-16.266217	19.827455	-2.614136	175.180744	0.418922	27.644254	-12.137938	-3.432510
3.271186	2.044010	-1.401103	88.254197	0.205925	0.703712	0.862660	19.948410	1.848871	6.707092	21.295176	0.371671	34.357491	-3.389884	0.000000	14.085505	-2.433498	-16.735201	15.627075	0.272744	38.177691	12.557364	0.000000	-0.036809	-0.470253	-0.840755	-0.068358	-0.625436	-0.893303	-0.060473	-1.143373	-0.893303	-0.042069	-1.143373	-0.735661	-0.034181	-0.958940	-0.683114	-0.021033	-0.728422	-0.630567	-0.262922	-5.319594	-4.676029	0.000000	0.000000	15.559753	-2.690126	-18.614620	46.512795	-39.269411	-44.904171	150.349586	77.738327	-5.965673	-15.263009	19.419118	-2.767123	175.652596	0.292715	28.606579	-13.495146	-2.457408
3.288136	2.162373	-0.836716	88.273645	0.205816	0.703414	0.862050	19.878712	1.963348	6.274466	22.423740	0.391368	35.373154	-2.621602	0.000000	13.723699	-2.640593	-17.059153	16.227381	0.283221	38.789532	12.645443	0.000000	-0.029777	-0.462756	-0.896465	-0.055299	-0.615466	-0.952494	-0.048921	-1.125145	-0.952494	-0.034032	-1.125145	-0.784407	-0.027651	-0.943652	-0.728378	-0.017015	-0.716809	-0.672349	-0.212695	-5.234789	-4.985868	0.000000	0.000000	14.233429	-3.084826	-19.028206	48.540737	-39.738046	-44.608299	150.375336	74.109247	1.956784	-13.812120	18.934822	-2.984280	175.382213	0.154359	28.500223	-14.720502	-1.998357
3.305085	2.268320	-0.298980	88.209454	0.205834	0.703021	0.861508	19.847043	2.096491	5.957720	23.549873	0.411023	36.352024	-1.848916	0.000000	13.430216	-2.865357	-17.399697	16.916763	0.295253	39.421116	12.660352	0.000000	-0.021904	-0.456216	-0.944453	-0.040678	-0.606767	-1.003482	-0.035986	-1.109243	-1.003482	-0.025034	-1.109243	-0.826397	-0.020340	-0.930315	-0.767368	-0.012516	-0.706678	-0.708340	-0.156457	-5.160805	-5.252766	0.000000	0.000000	13.012305	-3.501008	-19.500735	50.354339	-39.928406	-44.147433	150.312479	70.446044	10.046158	-12.269644	18.388342	-3.316512	173.584351	0.205332	27.796137	-15.732185	-2.054665
3.322034	2.426893	0.204864	88.081358	0.205795	0.702635	0.860931	19.816348	2.286840	5.705268	24.610324	0.429531	37.249779	-1.068142	0.000000	13.202161	-3.159736	-17.731428	17.693708	0.308813	40.078080	12.643453	0.000000	-0.014058	-0.442742	-0.968766	-0.026108	-0.588846	-1.029314	-0.023097	-1.076482	-1.029314	-0.016067	-1.076482	-0.847670	-0.013055	-0.902839	-0.787122	-0.008033	-0.685807	-0.726575	-0.100418	-5.008381	-5.387986	0.000000	0.000000	11.926782	-3.906718	-20.105241	51.944479	-40.053890	-43.645874	150.208066	66.007971	18.598480	-10.058709	18.270532	-3.579854	174.369061	-0.336254	22.865365	-16.312885	-3.195729
3.338983	2.562456	0.656732	87.905592	0.205932	0.702168	0.860275	19.812799	2.488112	5.613625	25.626956	0.447275	38.074629	-0.418799	0.000000	13.061731	-3.451848	-18.012339	18.554212	0.323832	40.738328	12.537884	0.000000	-0.004510	-0.435194	-0.984144	-0.008376	-0.578808	-1.045653	-0.007410	-1.058131	-1.045653	-0.005155	-1.058131	-0.861126	-0.004188	-0.887448	-0.799617	-0.002577	-0.674116	-0.738108	-0.032216	-4.923003	-5.473516	0.000000	0.000000	11.058553	-4.270897	-20.846276	53.247871	-40.007106	-43.197337	150.123111	62.121413	26.657936	-8.149615	17.860888	-4.010192	171.770171	-0.280848	19.491349	-16.814007	-4.355202
